<svg width="126" height="34" viewBox="0 0 126 34" fill="none" xmlns="http://www.w3.org/2000/svg">
<path d="M36.5584 15.4111V13.8591H38.2704C39.1984 13.8751 39.8704 14.5631 39.8704 15.4911V16.0191C40.4304 14.8991 41.6624 13.8591 43.3904 13.8591C45.6144 13.8591 47.0864 14.8991 47.4384 17.5871H45.5504C45.5504 16.0511 44.5904 15.4111 43.4064 15.4111C41.0224 15.4111 39.8704 16.5471 39.8704 18.9951V25.0591H37.9984V15.4111H36.5584ZM59.7551 20.3551H51.0671C51.0671 21.7471 51.4031 23.4271 54.4271 23.4271C56.3631 23.4271 57.4991 22.7871 57.7071 21.4911H59.5471C59.2591 23.8911 57.1151 25.1231 54.4271 25.1231C49.6911 25.1231 49.0671 21.7311 49.0671 19.8271C49.0671 15.7311 51.0671 13.8111 54.4271 13.8111C57.7871 13.8111 59.7551 15.7311 59.7551 20.3551ZM57.6591 18.9311C57.5151 16.6911 56.7471 15.4751 54.4271 15.4751C52.1071 15.4751 51.2271 16.6911 51.0831 18.9311H57.6591ZM61.2378 15.4111V13.8591H62.9498C63.8778 13.8751 64.5498 14.5631 64.5498 15.4911V16.0191C65.1098 14.8991 66.3418 13.8591 68.0698 13.8591C70.2938 13.8591 71.7658 14.8991 72.1178 17.5871H70.2298C70.2298 16.0511 69.2698 15.4111 68.0858 15.4111C65.7018 15.4111 64.5498 16.5471 64.5498 18.9951V25.0591H62.6778V15.4111H61.2378ZM84.4344 20.3551H75.7464C75.7464 21.7471 76.0824 23.4271 79.1064 23.4271C81.0424 23.4271 82.1784 22.7871 82.3864 21.4911H84.2264C83.9384 23.8911 81.7944 25.1231 79.1064 25.1231C74.3704 25.1231 73.7464 21.7311 73.7464 19.8271C73.7464 15.7311 75.7464 13.8111 79.1064 13.8111C82.4664 13.8111 84.4344 15.7311 84.4344 20.3551ZM82.3384 18.9311C82.1944 16.6911 81.4264 15.4751 79.1064 15.4751C76.7864 15.4751 75.9064 16.6911 75.7624 18.9311H82.3384ZM92.9252 13.8591C95.7252 13.8591 97.5972 15.4271 97.5972 18.5151V25.0591H95.6772V18.5151C95.6772 16.4031 94.4612 15.4111 92.8292 15.4111C90.2372 15.4111 89.2772 16.8671 89.2772 18.5151V25.0591H87.3572V15.4111H85.9172V13.8591H87.6452C88.5892 13.8591 89.2772 14.5471 89.2772 15.4911V16.0191C89.7092 14.7551 90.8612 13.8591 92.9252 13.8591ZM100.71 21.4271L102.518 23.2351L100.71 25.0591L98.8703 23.2351L100.71 21.4271ZM104.164 21.5871C104.164 19.9071 105.572 18.4831 107.812 18.2591L113.252 17.7311C113.252 16.8991 112.564 15.3631 109.764 15.3631C107.908 15.3631 106.388 15.8911 106.18 17.3791H104.484C104.804 15.0591 106.884 13.8111 109.78 13.8111C114.452 13.8111 115.124 16.2751 115.124 18.1631V25.0591H113.252V21.4271C112.74 22.9791 110.708 25.1231 108.276 25.1231C105.508 25.1231 104.164 23.6351 104.164 21.5871ZM106.036 21.6031C106.036 22.7391 106.724 23.5711 108.292 23.5711C110.148 23.5711 112.244 22.1311 113.236 19.1391L108.132 19.6031C106.66 19.7471 106.036 20.7231 106.036 21.6031ZM122.136 11.1871L120.504 12.8191L118.856 11.1871L120.504 9.55508L122.136 11.1871ZM121.736 23.5071H124.664V25.0591H116.984V23.5071H119.912V15.4111H116.936V13.8591H120.104C121.048 13.8591 121.736 14.5471 121.736 15.4911V23.5071Z" fill="url(#paint0_linear_56_4676)"/>
<path fill-rule="evenodd" clip-rule="evenodd" d="M19.3193 5.03786C18.1831 3.49174 17.0454 1.94364 15.8968 0.380371C13.8751 3.14809 11.889 5.86724 9.89029 8.60361C9.97173 8.62524 10.0449 8.64446 10.1127 8.66225C10.2413 8.69601 10.3503 8.72462 10.4587 8.75481C11.9211 9.15986 13.1746 9.86177 14.0224 10.989C14.4955 11.6172 14.8965 12.2873 15.2976 12.9576C15.4702 13.2462 15.6429 13.5348 15.8214 13.82C15.8679 13.8948 15.9096 13.9722 15.9561 14.0585C15.978 14.0991 15.9561 14.0585 16.026 14.187C16.092 14.0046 16.1517 13.8261 16.2102 13.6514C16.3333 13.2839 16.4508 12.9331 16.6084 12.5969C17.3124 11.0935 18.5548 10.0271 20.1896 9.29877C20.5421 9.1417 20.895 8.98487 21.2513 8.82647C21.4639 8.73198 21.6778 8.63692 21.8936 8.54092C21.0336 7.37057 20.1769 6.20478 19.3193 5.03786ZM15.8839 12.5052C16.8547 10.3692 18.666 9.15608 20.874 8.30182C20.3009 7.52218 19.7318 6.74788 19.1641 5.97553C18.0763 4.49562 16.9938 3.02289 15.8989 1.53343C15.1202 2.59908 14.3487 3.65463 13.5793 4.70721C12.7161 5.88816 11.8557 7.06538 10.9909 8.24896C13.3462 8.99505 14.8147 10.5105 15.8839 12.5052Z" fill="url(#paint1_diamond_56_4676)"/>
<path d="M28.3687 14.3355C28.3796 14.4255 28.3907 14.5174 28.4043 14.6117L28.4036 14.6123H31.4317C31.3861 14.439 31.3449 14.2684 31.3042 14.1002L31.304 14.0993L31.3039 14.0989C31.2182 13.7444 31.1351 13.4006 31.0197 13.0653C30.3905 11.2404 29.0838 9.99699 26.9238 9.58334C24.7059 9.15862 22.5417 9.38112 20.506 10.2693C17.8878 11.4113 16.408 13.254 16.3878 15.8705C16.3654 18.842 16.3685 21.8142 16.3717 24.7863C16.3729 25.9835 16.3742 27.1806 16.3738 28.3777C16.3738 28.4288 16.379 28.4799 16.386 28.5485L16.386 28.5486C16.3901 28.5896 16.3949 28.637 16.3996 28.6943C16.6185 28.3958 16.8351 28.1009 17.0497 27.8087L17.0499 27.8084C17.7796 26.815 18.4865 25.8525 19.1826 24.8841C19.2929 24.7311 19.3593 24.5258 19.36 24.3445C19.3654 23.2001 19.3656 22.0559 19.3657 20.9117C19.3658 19.5769 19.366 18.2421 19.3746 16.9074C19.3788 16.2854 19.4102 15.6553 19.5262 15.0438C19.7964 13.6197 20.617 12.5342 22.196 11.9853C23.254 11.6172 24.3658 11.5115 25.4852 11.611C27.0425 11.7499 27.9755 12.5053 28.2835 13.7973C28.3249 13.9716 28.3464 14.1496 28.3687 14.3355Z" fill="url(#paint2_diamond_56_4676)"/>
<path fill-rule="evenodd" clip-rule="evenodd" d="M15.5257 28.592C15.5227 28.6162 15.5186 28.6482 15.5135 28.6928C15.3223 28.4339 15.1377 28.1844 14.9574 27.9408L14.957 27.9402C14.6648 27.5454 14.3838 27.1658 14.1042 26.7852C14.0134 26.6616 13.9224 26.5382 13.8314 26.4148C13.4603 25.9116 13.0894 25.4086 12.7361 24.8958C12.623 24.7323 12.5496 24.519 12.5489 24.3285C12.5421 23.0454 12.5407 21.7622 12.5394 20.4789V20.4779C12.5378 19.0161 12.5363 17.5542 12.5266 16.0924C12.5217 15.3843 12.3674 14.691 12.0594 14.0296C11.6132 13.0714 10.8589 12.3787 9.75903 12.0069C8.48453 11.5754 7.16255 11.4389 5.8259 11.7131C4.56258 11.9724 3.7483 12.8292 3.59257 13.9633C3.57401 14.0974 3.55684 14.2319 3.53913 14.3706C3.52886 14.4511 3.51839 14.5331 3.50737 14.6172H0.515625C0.671358 13.5342 0.981426 12.5189 1.63788 11.6012C2.49266 10.407 3.76157 9.74622 5.30633 9.52249C7.85811 9.1531 10.2695 9.51881 12.44 10.7997C14.4464 11.9841 15.5016 13.6676 15.5176 15.793C15.5412 18.84 15.5381 21.8869 15.535 24.9338C15.5338 26.1279 15.5326 27.322 15.533 28.516C15.533 28.5345 15.5306 28.5532 15.5257 28.592ZM15.5135 28.6928L15.5142 28.6937H15.5135L15.5135 28.6928Z" fill="url(#paint3_diamond_56_4676)"/>
<path d="M22.9747 12.5576C23.0775 12.4996 23.1723 12.4462 23.2672 12.3928L23.2681 12.3923C23.363 12.3389 23.4578 12.2855 23.5606 12.2275C23.6802 12.3892 23.7984 12.5488 23.9157 12.707C24.1444 13.0156 24.3694 13.319 24.5928 13.6234C24.85 13.9728 25.1067 14.3228 25.3633 14.6727L25.3635 14.6729C25.9833 15.5181 26.6032 16.3633 27.2319 17.203C27.4323 17.4704 27.4337 17.68 27.2319 17.9535C24.3333 21.887 21.4411 25.8244 18.5489 29.7617L18.5454 29.7664C17.7457 30.8551 16.946 31.9438 16.1462 33.0324C16.0942 33.1035 16.0394 33.173 15.9762 33.253L15.9757 33.2537C15.95 33.2863 15.9229 33.3206 15.8941 33.3575C15.7572 33.1723 15.6217 32.9894 15.4874 32.808C15.1764 32.388 14.8715 31.9763 14.5686 31.5634C13.9151 30.6739 13.2618 29.7843 12.6084 28.8948L12.5935 28.8744C9.92545 25.2419 7.25753 21.6095 4.58288 17.9811C4.36639 17.6873 4.37547 17.4655 4.59266 17.1753C5.43247 16.0508 6.26084 14.9197 7.08931 13.7886C7.40101 13.363 7.71272 12.9374 8.02506 12.5121C8.06645 12.456 8.11094 12.4016 8.16018 12.3413L8.16023 12.3412C8.18491 12.311 8.21079 12.2794 8.23806 12.2453C8.32189 12.2932 8.40269 12.3394 8.48347 12.3856L8.4854 12.3867C8.59373 12.4487 8.70207 12.5107 8.81769 12.5766C8.53005 12.9684 8.24595 13.3555 7.96369 13.7402C7.63124 14.1933 7.30134 14.6429 6.97125 15.0923C6.83403 15.2793 6.6972 15.4666 6.56037 15.6538C6.14987 16.2155 5.73936 16.7772 5.31824 17.3327C5.18207 17.5128 5.17369 17.6363 5.31196 17.8238C8.0556 21.546 10.793 25.2715 13.5305 28.997C13.9689 29.5937 14.4074 30.1904 14.8459 30.7871C14.973 30.9602 15.1 31.1333 15.2288 31.3087C15.4438 31.6018 15.6635 31.9011 15.8955 32.2168C16.0213 32.0467 16.1437 31.8816 16.2638 31.7197L16.2677 31.7144C16.4708 31.4405 16.6673 31.1755 16.8627 30.91C17.528 30.0046 18.1932 29.099 18.8583 28.1935L18.8743 28.1718C21.3981 24.736 23.9218 21.3003 26.4511 17.8674C26.6033 17.6609 26.6187 17.522 26.4574 17.3056C25.5897 16.1433 24.7337 14.974 23.8778 13.8049L23.8774 13.8044L23.8771 13.8039C23.6248 13.4593 23.3725 13.1147 23.12 12.7702C23.0888 12.7278 23.0595 12.6844 23.0221 12.6291C23.0075 12.6075 22.9917 12.5841 22.974 12.5582L22.9747 12.5576Z" fill="url(#paint4_diamond_56_4676)"/>
<defs>
<linearGradient id="paint0_linear_56_4676" x1="35.5547" y1="19.5591" x2="125.555" y2="19.5591" gradientUnits="userSpaceOnUse">
<stop stop-color="#6E7EFD"/>
<stop offset="0.44638" stop-color="#63B3CA"/>
<stop offset="0.983582" stop-color="#BAEBE2"/>
</linearGradient>
<radialGradient id="paint1_diamond_56_4676" cx="0" cy="0" r="1" gradientUnits="userSpaceOnUse" gradientTransform="translate(15.9737 32.1255) rotate(-90) scale(30.578 30.0364)">
<stop stop-color="#7ED9F3"/>
<stop offset="0.5" stop-color="#89D0E7"/>
<stop offset="1" stop-color="#6E7EFD"/>
</radialGradient>
<radialGradient id="paint2_diamond_56_4676" cx="0" cy="0" r="1" gradientUnits="userSpaceOnUse" gradientTransform="translate(15.9737 32.1255) rotate(-90) scale(30.578 30.0364)">
<stop stop-color="#7ED9F3"/>
<stop offset="0.5" stop-color="#89D0E7"/>
<stop offset="1" stop-color="#6E7EFD"/>
</radialGradient>
<radialGradient id="paint3_diamond_56_4676" cx="0" cy="0" r="1" gradientUnits="userSpaceOnUse" gradientTransform="translate(15.9737 32.1255) rotate(-90) scale(30.578 30.0364)">
<stop stop-color="#7ED9F3"/>
<stop offset="0.5" stop-color="#89D0E7"/>
<stop offset="1" stop-color="#6E7EFD"/>
</radialGradient>
<radialGradient id="paint4_diamond_56_4676" cx="0" cy="0" r="1" gradientUnits="userSpaceOnUse" gradientTransform="translate(15.9737 32.1255) rotate(-90) scale(30.578 30.0364)">
<stop stop-color="#7ED9F3"/>
<stop offset="0.5" stop-color="#89D0E7"/>
<stop offset="1" stop-color="#6E7EFD"/>
</radialGradient>
</defs>
</svg>
